<?xml version="1.0" encoding="UTF-8" standalone="no"?>
<!-- Created with Inkscape (http://www.inkscape.org/) -->

<svg
   width="210mm"
   height="297mm"
   viewBox="0 0 210 297"
   version="1.1"
   id="svg1"
   xml:space="preserve"
   inkscape:version="1.4.2 (f4327f4, 2025-05-13)"
   sodipodi:docname="logo-vector.svg"
   xmlns:inkscape="http://www.inkscape.org/namespaces/inkscape"
   xmlns:sodipodi="http://sodipodi.sourceforge.net/DTD/sodipodi-0.dtd"
   xmlns="http://www.w3.org/2000/svg"
   xmlns:svg="http://www.w3.org/2000/svg"><sodipodi:namedview
     id="namedview1"
     pagecolor="#ffffff"
     bordercolor="#000000"
     borderopacity="0.25"
     inkscape:showpageshadow="2"
     inkscape:pageopacity="0.0"
     inkscape:pagecheckerboard="0"
     inkscape:deskcolor="#d1d1d1"
     inkscape:document-units="mm"
     inkscape:zoom="0.59433724"
     inkscape:cx="-60.571672"
     inkscape:cy="646.9391"
     inkscape:window-width="2805"
     inkscape:window-height="1629"
     inkscape:window-x="1010"
     inkscape:window-y="435"
     inkscape:window-maximized="0"
     inkscape:current-layer="svg1" /><defs
     id="defs1" /><g
     id="g1"
     style="display:inline"
     transform="translate(-20.130953,-47.431661)"><rect
       style="fill:#fefcef;fill-opacity:1;stroke-width:0.259872"
       id="rect7"
       width="119.66253"
       height="154.14667"
       x="16.791586"
       y="-239.41118"
       inkscape:label="bg"
       rx="0"
       transform="matrix(0.99656594,-0.08280298,-0.07107721,-0.99747082,0,0)" /><path
       style="display:inline;fill:#f6d0cf"
       d="m 34.351155,239.50412 c -1.064081,-0.49188 -1.82866,-0.83516 -2.25718,-1.86076 -0.357577,-0.8558 -1.744329,-7.95072 -2.527347,-29.28399 -0.614043,-16.72958 0.299085,-18.33054 -0.97636,-19.97356 -2.573572,-3.31524 -4.435772,-5.21396 -4.811107,-10.98269 -1.883817,-28.95334 -1.121604,-26.77771 2.519153,-32.45284 1.043115,-1.62599 -2.264187,-28.59566 -3.414772,-61.606646 -0.196857,-5.647946 62.5841,-20.290939 75.011246,-30.287484 7.009792,-5.638761 19.532932,16.775472 21.466892,16.57515 10.89152,-1.128156 27.99146,-1.692486 28.54866,8.442494 0.55759,10.141956 -0.61371,46.804056 3.44675,48.387936 13.2599,-3.03696 17.92377,-0.53692 18.39567,11.84047 0.10267,2.69302 0.18484,5.34419 0.25889,5.34419 0.074,0 6.05755,-0.69148 12.40107,-1.63132 23.3607,-3.46106 22.30786,-3.58585 23.95912,-2.13603 2.33386,2.04915 1.93602,2.06551 -4.12351,12.19337 -5.03202,8.41048 -4.97638,8.9113 -4.29945,9.62894 12.18137,12.91393 14.0192,15.34123 11.56171,18.06138 -1.39393,1.54291 2.45496,0.61754 -39.41133,5.98322 -8.07641,1.03509 -14.74779,1.86026 -15.23645,2.15213 -0.084,0.0502 1.03164,30.23351 1.79748,40.77065 0.34563,4.75554 0.27375,4.80541 -1.45893,6.32672 -1.67248,1.46846 -1.75647,0.97031 -49.56331,2.58858 -12.297523,0.41627 -30.668361,0.98766 -40.418256,1.34166 -25.939178,0.94179 -29.891779,1.03 -30.868639,0.57843 z m 33.514472,-8.09913 c 5.529791,-0.19845 10.292291,-0.3593 10.583333,-0.35745 0.291041,0.002 5.172603,-0.18919 10.847916,-0.42454 5.675312,-0.23534 19.010314,-0.7327 29.633334,-1.10523 20.65332,-0.72428 20.41086,-0.70695 19.54403,-1.39721 -0.30846,-0.24563 -3.75459,-3.12551 -7.65806,-6.39973 -3.90347,-3.27422 -8.9486,-7.50105 -11.21139,-9.39296 -2.26279,-1.89191 -4.91944,-4.12433 -5.90367,-4.96093 -2.22928,-1.89493 -1.89215,-1.9406 -5.35425,0.72526 -18.742033,14.43161 -19.197609,14.56571 -26.61659,7.8346 -1.745668,-1.58382 -1.745891,-1.58392 -4.088099,-1.89561 -4.958739,-0.65989 -4.482596,-0.90644 -12.090746,6.26083 -9.317523,8.77759 -12.051505,11.45691 -11.782232,11.54667 0.127925,0.0426 1.089766,0.0437 2.137424,0.002 1.047659,-0.0414 6.429208,-0.23757 11.959,-0.43602 z m 80.171503,-20.15456 c -0.37578,-5.2281 -0.91657,-12.6608 -1.20175,-16.5171 -0.28518,-3.8563 -0.51903,-7.33888 -0.51966,-7.73906 -0.002,-1.33327 -6.01411,1.40449 -18.1251,8.25382 -1.4552,0.82299 -3.56856,2.01758 -4.69635,2.65464 -2.58595,1.46076 -2.67652,1.19627 1.59998,4.67233 1.99405,1.62082 8.09038,6.60743 13.54741,11.08135 7.88667,6.46584 9.93796,8.02828 10.0003,7.61704 0.0431,-0.28456 -0.22905,-4.79491 -0.60483,-10.02302 z m -95.927584,3.48639 c 1.520613,-1.53352 2.686501,-2.86647 2.590862,-2.96211 -0.261864,-0.26187 -6.769788,-2.22471 -7.376146,-2.22471 -0.51126,0 -0.564012,6.55755 -0.07196,8.9449 0.163899,0.79521 0.930163,0.20235 4.857242,-3.75808 z m 14.546707,-55.59188 c 6.989274,-0.71099 13.070955,-2.03281 22.570029,-4.90551 8.161813,-2.46828 10.897128,-3.71854 25.735178,-11.76304 9.30056,-5.04233 19.87274,-10.33445 24.66958,-12.34886 3.24396,-1.36228 3.24396,-1.36228 3.24224,-2.44334 -9.5e-4,-0.59459 -0.23967,-5.01013 -0.53049,-9.81231 -0.29082,-4.80219 -0.88056,-14.80344 -1.31052,-22.225003 -0.42997,-7.421562 -0.85813,-14.722572 -0.95146,-16.224467 -0.1697,-2.730718 -0.1697,-2.730718 -1.13515,-2.591987 -0.531,0.0763 -2.21561,0.20756 -3.74358,0.291684 -1.52797,0.08412 -10.39812,0.622692 -19.71146,1.196819 -21.383091,1.318176 -39.578812,2.388668 -67.468742,3.969326 -12.652251,0.717065 -11.591884,0.52508 -11.399373,2.063917 0.08536,0.682298 0.395551,4.633823 0.689321,8.781167 0.691442,9.761564 1.499476,20.461674 1.848183,24.473954 0.151766,1.74625 0.514197,6.27063 0.805402,10.05417 0.291206,3.78354 0.829258,10.7487 1.195673,15.47812 0.366414,4.72943 0.759835,9.94865 0.874268,11.59827 0.24527,3.5357 -0.02352,3.27333 3.956745,3.86229 6.862547,1.01546 14.148901,1.20756 20.664156,0.5448 z"
       id="path6"
       inkscape:label="path6"
       sodipodi:nodetypes="sssssssssssssssssssssssssccssssssssssscccsscssssssssssssssssssssssssssssssss" /><path
       style="display:inline;fill:#1971c0"
       d="m 33.385616,240.34837 c -1.503484,-0.74921 -2.527847,-2.13768 -2.811539,-3.81088 -0.198122,-1.1685 -2.52824,-40.67285 -2.52824,-42.86325 0,-1.7778 -0.13558,-2.12819 -1.522593,-3.93499 -3.103191,-4.04239 -3.596478,-6.3801 -4.461747,-21.14439 -1.187728,-20.26646 -1.267742,-19.47937 2.548546,-25.06992 0.35849,-0.52516 0.352906,-1.20992 -0.05305,-6.50542 -0.249542,-3.25516 -0.703023,-9.31176 -1.007737,-13.4591 -0.304714,-4.14735 -0.843952,-11.1125 -1.198306,-15.47813 C 21.996596,103.71667 21.404354,96.334794 21.034857,91.678128 20.66536,87.021461 20.291,82.483988 20.202946,81.594854 c -0.482681,-4.873939 1.298737,-6.032966 10.342286,-6.728905 14.993646,-1.153824 14.082044,-1.01216 20.387059,-3.168165 5.825141,-1.991911 33.812266,-13.553286 42.597915,-17.597036 1.164166,-0.535828 3.009635,-1.311262 4.101041,-1.723186 1.091406,-0.411924 3.762733,-1.477619 5.936273,-2.368211 10.397,-4.260098 12.10755,-3.640076 13.49547,4.891695 0.93587,5.752935 2.53117,13.979428 2.75675,14.215756 0.10123,0.106062 2.91907,0.0207 6.26185,-0.189691 18.59585,-1.170405 18.74567,-1.164288 20.50297,0.837168 1.42463,1.622571 1.14288,-1.372344 3.30611,35.143011 0.36208,6.11188 0.79309,13.37469 0.9578,16.13959 0.35338,5.93176 0.0644,5.35659 2.41489,4.80587 11.54758,-2.70553 16.07311,0.59175 16.63712,12.12172 0.3108,6.35361 -0.60356,5.78967 7.43155,4.58346 28.27451,-4.2445 28.06565,-4.22809 29.66174,-2.33124 1.53049,1.81889 1.43125,2.0653 -5.31357,13.19298 -4.88185,8.05412 -5.19387,6.1907 2.48553,14.8441 6.77792,7.63758 7.1281,8.16853 6.6385,10.06539 -0.58325,2.25964 -1.74029,2.79033 -7.81608,3.58491 -15.18071,1.98532 -32.1917,4.18662 -40.63742,5.25869 -3.91319,0.49672 -7.19,1.02467 -7.28181,1.17321 -0.15344,0.24827 0.56935,11.80399 2.18533,34.93857 1.00663,14.41096 2.50582,13.27981 -18.61259,14.04332 -8.22192,0.29725 -19.83052,0.71668 -25.79687,0.93206 -16.050361,0.5794 -24.192201,0.87752 -36.115625,1.32243 -12.783933,0.47702 -40.589893,1.45306 -41.395487,1.45306 -0.313149,0 -1.189778,-0.30917 -1.948065,-0.68704 z m 25.881053,-8.04833 c 4.001823,-0.14271 10.371666,-0.37876 14.155208,-0.52455 13.187595,-0.50815 44.981433,-1.66031 58.340623,-2.11417 8.85273,-0.30076 11.64166,-0.48789 11.64166,-0.78112 0,-0.11209 -1.57757,-1.50799 -3.50572,-3.102 -1.92816,-1.594 -8.80401,-7.29732 -15.27969,-12.67404 -6.47568,-5.37672 -12.71069,-10.54669 -13.85558,-11.48883 -2.39065,-1.96727 -1.07391,-2.86376 -9.9201,6.75401 -10.35032,11.25309 -10.821632,11.2744 -21.567383,0.97501 -2.185841,-2.09504 -3.544696,-3.21211 -3.791952,-3.11722 -0.21194,0.0813 -0.677517,0.14787 -1.034615,0.14787 -0.688598,0 -0.803944,0.10521 -18.952763,17.28876 -10.568039,10.00595 -10.032182,9.24251 -6.35,9.04688 1.564349,-0.0831 6.118489,-0.26788 10.120312,-0.4106 z m -5.820833,-18.11608 c 9.079686,-8.83342 8.820877,-8.49599 6.696093,-8.73014 -6.559423,-0.72284 -15.526364,-3.3457 -21.212931,-6.20485 -2.811034,-1.41336 -2.611524,-2.83137 -1.793721,12.74881 0.391455,7.45773 0.709128,14.22427 0.70594,15.03676 -0.0032,0.8125 0.07095,1.554 0.164741,1.6478 0.197367,0.19737 4.135731,-3.50084 15.439878,-14.49838 z m 95.930754,7.07385 c -0.22136,-2.04168 -3.0511,-41.57082 -3.0589,-42.73021 -0.008,-1.21521 -4.48677,0.90587 -18.65623,8.83567 -5.09323,2.85038 -10.03433,5.58541 -10.98021,6.07784 -2.31667,1.20608 -2.67218,0.73959 5.95312,7.81153 4.22011,3.46009 11.84011,9.71437 16.93334,13.89839 10.26254,8.43056 10.04623,8.29589 9.80888,6.10678 z M 94.140132,205.38509 c 4.772635,-4.96404 4.799461,-5.14764 0.515264,-3.52656 -1.637499,0.61961 -4.519502,1.51536 -6.404452,1.99056 -4.030606,1.01612 -4.06943,1.0646 -2.076368,2.59269 3.845558,2.94841 4.154263,2.90746 7.965556,-1.05669 z M 69.585418,159.43948 c 5.61252,-0.81236 10.248528,-1.85425 17.166984,-3.8581 9.400938,-2.72286 13.912208,-4.67371 25.827808,-11.16895 13.34833,-7.27623 22.98098,-12.09592 29.10416,-14.56225 1.88307,-0.75847 1.92036,-1.43542 0.95124,-17.26997 -0.76179,-12.44693 -1.54565,-25.687568 -1.86208,-31.45328 -0.14279,-2.6017 -0.30987,-4.780629 -0.37131,-4.842064 -0.0614,-0.06143 -4.9773,0.19447 -10.92415,0.568678 -20.13763,1.267168 -40.405233,2.500716 -49.970777,3.041374 -9.542538,0.539357 -17.873689,1.027122 -29.50104,1.727201 -3.41974,0.205902 -8.718021,0.511747 -11.773958,0.679656 -10.196758,0.560263 -10.06153,0.542607 -10.006646,1.306561 0.02614,0.363802 0.40944,4.828646 0.851786,9.921875 0.881152,10.145699 1.387182,16.894659 2.807106,37.438539 1.201248,17.38002 1.868198,24.61336 2.306894,25.01917 1.36597,1.26358 9.397706,3.08561 17.270026,3.91777 2.426907,0.25654 15.44397,-0.0783 18.123957,-0.46621 z m 13.39024,-10.2118 c -11.791966,-1.49247 -22.114604,-8.67346 -19.24132,-13.38531 1.41571,-2.32161 4.739955,-2.19079 7.505134,0.29535 8.451818,7.59891 28.140928,6.52391 36.313648,-1.98267 4.04528,-4.21052 9.98512,-2.58692 7.97544,2.18001 -3.23514,7.67368 -20.321392,14.44072 -32.552902,12.89262 z M 69.810898,127.7032 c -6.985241,-2.5886 -7.991092,-17.62095 -1.416105,-21.16355 5.951273,-3.20654 11.584803,2.16056 11.617052,11.06764 0.02818,7.78295 -4.458884,12.22381 -10.200947,10.09591 z m 4.152172,-11.14221 c 0.754476,-0.75448 0.857608,-2.04433 0.274956,-3.43881 -1.043659,-2.49783 -4.123441,-1.51931 -4.123441,1.31011 0,2.34531 2.338429,3.63875 3.848485,2.1287 z m 31.42746,9.37456 c -8.293015,-1.68204 -9.523408,-19.51249 -1.51087,-21.89505 6.34791,-1.88758 10.93269,2.74469 10.9456,11.05898 0.0113,7.25689 -4.05508,11.92721 -9.43473,10.83607 z m 3.41937,-11.9214 c 0.62607,-0.76603 0.5951,-2.53698 -0.0632,-3.61675 -1.60562,-2.63341 -5.43253,0.37917 -3.965,3.12128 0.71284,1.33195 3.10419,1.62609 4.02825,0.49547 z M 94.853125,70.92546 c 15.545765,-0.919822 16.682335,-1.029434 16.638505,-1.604623 -0.0314,-0.411495 -1.87132,-10.768478 -2.10837,-11.867824 -0.16267,-0.754423 -32.518661,12.755895 -33.977009,14.187179 -0.475631,0.466805 -0.598247,0.471312 19.446874,-0.714732 z m 91.776905,30.68996 c -1.34543,-0.60317 -1.35051,-0.61148 -1.97552,-3.228287 -1.84916,-7.742126 -5.80148,-12.062243 -12.54306,-13.710288 -4.73374,-1.157211 -5.02874,-5.075418 -0.46751,-6.209635 6.52054,-1.621429 10.71863,-6.123237 12.67641,-13.593497 1.58231,-6.037594 5.31161,-6.077128 6.80542,-0.07214 1.72892,6.950128 5.46441,11.323135 11.19958,13.110964 3.55363,1.107775 3.7815,1.217287 4.19441,2.015765 1.1532,2.230044 0.0448,3.954339 -2.97351,4.625855 -6.31151,1.404176 -10.56177,5.844467 -12.26418,12.812516 -1.07166,4.386327 -2.14945,5.370677 -4.65204,4.248747 z"
       id="path3" /><path
       style="display:inline;fill:#1c5ca9"
       d="m 33.385616,240.34837 c -1.503484,-0.74921 -2.527847,-2.13768 -2.811539,-3.81088 -0.198122,-1.1685 -2.52824,-40.67285 -2.52824,-42.86325 0,-1.7778 -0.13558,-2.12819 -1.522593,-3.93499 -3.103191,-4.04239 -3.596478,-6.3801 -4.461747,-21.14439 -1.187728,-20.26646 -1.267742,-19.47937 2.548546,-25.06992 0.35849,-0.52516 0.352906,-1.20992 -0.05305,-6.50542 -0.249542,-3.25516 -0.703023,-9.31176 -1.007737,-13.4591 -0.304714,-4.14735 -0.843952,-11.1125 -1.198306,-15.47813 C 21.996596,103.71667 21.404354,96.334794 21.034857,91.678128 20.66536,87.021461 20.291,82.483988 20.202946,81.594854 c -0.482681,-4.873939 1.298737,-6.032966 10.342286,-6.728905 14.993646,-1.153824 14.082044,-1.01216 20.387059,-3.168165 5.825141,-1.991911 33.812266,-13.553286 42.597915,-17.597036 1.164166,-0.535828 3.009635,-1.311262 4.101041,-1.723186 1.091406,-0.411924 3.762733,-1.477619 5.936273,-2.368211 10.397,-4.260098 12.10755,-3.640076 13.49547,4.891695 0.93587,5.752935 2.53117,13.979428 2.75675,14.215756 0.10123,0.106062 2.91907,0.0207 6.26185,-0.189691 18.59585,-1.170405 18.74567,-1.164288 20.50297,0.837168 1.42463,1.622571 1.14288,-1.372344 3.30611,35.143011 0.36208,6.11188 0.79309,13.37469 0.9578,16.13959 0.35338,5.93176 0.0644,5.35659 2.41489,4.80587 11.54758,-2.70553 16.07311,0.59175 16.63712,12.12172 0.3108,6.35361 -0.60356,5.78967 7.43155,4.58346 28.27451,-4.2445 28.06565,-4.22809 29.66174,-2.33124 1.53049,1.81889 1.43125,2.0653 -5.31357,13.19298 -4.88185,8.05412 -5.19387,6.1907 2.48553,14.8441 6.77792,7.63758 7.1281,8.16853 6.6385,10.06539 -0.58325,2.25964 -1.74029,2.79033 -7.81608,3.58491 -15.18071,1.98532 -32.1917,4.18662 -40.63742,5.25869 -3.91319,0.49672 -7.19,1.02467 -7.28181,1.17321 -0.15344,0.24827 0.56935,11.80399 2.18533,34.93857 1.00663,14.41096 2.50582,13.27981 -18.61259,14.04332 -8.22192,0.29725 -19.83052,0.71668 -25.79687,0.93206 -16.050361,0.5794 -24.192201,0.87752 -36.115625,1.32243 -12.783933,0.47702 -40.589893,1.45306 -41.395487,1.45306 -0.313149,0 -1.189778,-0.30917 -1.948065,-0.68704 z m 25.881053,-8.04833 c 4.001823,-0.14271 10.371666,-0.37876 14.155208,-0.52455 13.187595,-0.50815 44.981433,-1.66031 58.340623,-2.11417 8.85273,-0.30076 11.64166,-0.48789 11.64166,-0.78112 0,-0.11209 -1.57757,-1.50799 -3.50572,-3.102 -1.92816,-1.594 -8.80401,-7.29732 -15.27969,-12.67404 -6.47568,-5.37672 -12.71069,-10.54669 -13.85558,-11.48883 -2.39065,-1.96727 -1.07391,-2.86376 -9.9201,6.75401 -10.35032,11.25309 -10.821632,11.2744 -21.567383,0.97501 -2.185841,-2.09504 -3.544696,-3.21211 -3.791952,-3.11722 -0.21194,0.0813 -0.677517,0.14787 -1.034615,0.14787 -0.688598,0 -0.803944,0.10521 -18.952763,17.28876 -10.568039,10.00595 -10.032182,9.24251 -6.35,9.04688 1.564349,-0.0831 6.118489,-0.26788 10.120312,-0.4106 z m -5.820833,-18.11608 c 9.079686,-8.83342 8.820877,-8.49599 6.696093,-8.73014 -6.559423,-0.72284 -15.526364,-3.3457 -21.212931,-6.20485 -2.811034,-1.41336 -2.611524,-2.83137 -1.793721,12.74881 0.391455,7.45773 0.709128,14.22427 0.70594,15.03676 -0.0032,0.8125 0.07095,1.554 0.164741,1.6478 0.197367,0.19737 4.135731,-3.50084 15.439878,-14.49838 z m 95.930754,7.07385 c -0.22136,-2.04168 -3.0511,-41.57082 -3.0589,-42.73021 -0.008,-1.21521 -4.48677,0.90587 -18.65623,8.83567 -5.09323,2.85038 -10.03433,5.58541 -10.98021,6.07784 -2.31667,1.20608 -2.67218,0.73959 5.95312,7.81153 4.22011,3.46009 11.84011,9.71437 16.93334,13.89839 10.26254,8.43056 10.04623,8.29589 9.80888,6.10678 z M 94.140132,205.38509 c 4.772635,-4.96404 4.799461,-5.14764 0.515264,-3.52656 -1.637499,0.61961 -4.519502,1.51536 -6.404452,1.99056 -4.030606,1.01612 -4.06943,1.0646 -2.076368,2.59269 3.845558,2.94841 4.154263,2.90746 7.965556,-1.05669 z m -17.088446,-6.80226 c 4.399227,-0.46401 5.57265,-0.65782 10.65769,-1.7603 2.229864,-0.48346 6.554867,-1.69147 8.334374,-2.32787 0.800365,-0.28623 2.94349,-1.04998 4.7625,-1.6972 5.36361,-1.90845 6.85475,-2.6109 24.34167,-11.46694 11.5864,-5.86779 13.55562,-6.78684 20.53004,-9.58155 8.89113,-3.56275 15.79964,-4.82625 18.60279,-3.40227 0.4953,0.2516 0.9326,0.45747 0.97179,0.45747 0.0392,0 0.0177,-0.86321 -0.0476,-1.91823 -0.0654,-1.05503 -0.29607,-4.77573 -0.51266,-8.26823 -0.2166,-3.4925 -0.51688,-8.01688 -0.6673,-10.05417 -0.15041,-2.03729 -0.36303,-6.02588 -0.47249,-8.86354 -0.20605,-5.34176 -0.29733,-5.76219 -1.49348,-6.87917 -3.1074,-2.90173 -18.31853,2.24832 -36.77878,12.45223 -21.57708,11.92674 -33.48534,16.84565 -47.889584,19.78159 -2.531944,0.51607 -3.321519,0.64461 -8.731249,1.42147 -3.216073,0.46184 -15.874609,0.45947 -19.049999,-0.004 -1.309688,-0.19098 -3.657754,-0.60119 -5.217925,-0.91159 -1.560172,-0.3104 -2.8886,-0.51133 -2.952064,-0.44652 -0.189051,0.19307 1.208767,24.61798 1.576547,27.54795 0.171548,1.36667 -0.155988,1.15665 4.835453,3.1005 2.998689,1.1678 9.128641,2.41443 14.854863,3.02099 2.47608,0.26228 11.098311,0.14144 14.345434,-0.20106 z M 174.11991,179.1199 c 4.68731,-0.56377 6.8441,-0.81429 10.42696,-1.21115 6.94231,-0.76896 10.29726,-1.15387 14.68437,-1.6847 1.23693,-0.14967 2.33826,-0.27302 2.4474,-0.27413 0.53655,-0.005 -0.21481,-0.95244 -5.3891,-6.79245 -7.63992,-8.62287 -7.46292,-6.89251 -1.65199,-16.14995 2.23549,-3.56137 4.06453,-6.56158 4.06453,-6.66712 0,-0.18291 -0.83548,-0.086 -7.54063,0.8748 -1.60073,0.22937 -3.80338,0.54436 -4.89479,0.69998 -1.0914,0.15563 -2.69875,0.3892 -3.57187,0.51906 -0.87313,0.12986 -2.59953,0.36858 -3.83646,0.53049 -4.45217,0.58279 -6.23267,0.82192 -7.11031,0.95496 -0.89261,0.13531 -0.89261,0.13531 -0.71629,2.43229 0.097,1.26334 0.28463,4.4401 0.41701,7.05948 0.13238,2.61937 0.37718,6.90562 0.54401,9.525 0.41411,6.50208 0.31321,7.75068 -0.74801,9.25624 -0.98808,1.4018 -1.01055,1.39456 2.87517,0.9272 z M 69.585418,159.43948 c 5.61252,-0.81236 10.248528,-1.85425 17.166984,-3.8581 9.400938,-2.72286 13.912208,-4.67371 25.827808,-11.16895 13.34833,-7.27623 22.98098,-12.09592 29.10416,-14.56225 1.88307,-0.75847 1.92036,-1.43542 0.95124,-17.26997 -0.76179,-12.44693 -1.54565,-25.687568 -1.86208,-31.45328 -0.14279,-2.6017 -0.30987,-4.780629 -0.37131,-4.842064 -0.0614,-0.06143 -4.9773,0.19447 -10.92415,0.568678 -20.13763,1.267168 -40.405233,2.500716 -49.970777,3.041374 -9.542538,0.539357 -17.873689,1.027122 -29.50104,1.727201 -3.41974,0.205902 -8.718021,0.511747 -11.773958,0.679656 -10.196758,0.560263 -10.06153,0.542607 -10.006646,1.306561 0.02614,0.363802 0.40944,4.828646 0.851786,9.921875 0.881152,10.145699 1.387182,16.894659 2.807106,37.438539 1.201248,17.38002 1.868198,24.61336 2.306894,25.01917 1.36597,1.26358 9.397706,3.08561 17.270026,3.91777 2.426907,0.25654 15.44397,-0.0783 18.123957,-0.46621 z m 13.39024,-10.2118 c -11.791966,-1.49247 -22.114604,-8.67346 -19.24132,-13.38531 1.41571,-2.32161 4.739955,-2.19079 7.505134,0.29535 8.451818,7.59891 28.140928,6.52391 36.313648,-1.98267 4.04528,-4.21052 9.98512,-2.58692 7.97544,2.18001 -3.23514,7.67368 -20.321392,14.44072 -32.552902,12.89262 z M 69.810898,127.7032 c -6.985241,-2.5886 -7.991092,-17.62095 -1.416105,-21.16355 5.951273,-3.20654 11.584803,2.16056 11.617052,11.06764 0.02818,7.78295 -4.458884,12.22381 -10.200947,10.09591 z m 4.152172,-11.14221 c 0.754476,-0.75448 0.857608,-2.04433 0.274956,-3.43881 -1.043659,-2.49783 -4.123441,-1.51931 -4.123441,1.31011 0,2.34531 2.338429,3.63875 3.848485,2.1287 z m 31.42746,9.37456 c -8.293015,-1.68204 -9.523408,-19.51249 -1.51087,-21.89505 6.34791,-1.88758 10.93269,2.74469 10.9456,11.05898 0.0113,7.25689 -4.05508,11.92721 -9.43473,10.83607 z m 3.41937,-11.9214 c 0.62607,-0.76603 0.5951,-2.53698 -0.0632,-3.61675 -1.60562,-2.63341 -5.43253,0.37917 -3.965,3.12128 0.71284,1.33195 3.10419,1.62609 4.02825,0.49547 z M 94.853125,70.92546 c 15.545765,-0.919822 16.682335,-1.029434 16.638505,-1.604623 -0.0314,-0.411495 -1.87132,-10.768478 -2.10837,-11.867824 -0.16267,-0.754423 -32.518661,12.755895 -33.977009,14.187179 -0.475631,0.466805 -0.598247,0.471312 19.446874,-0.714732 z m 91.776905,30.68996 c -1.34543,-0.60317 -1.35051,-0.61148 -1.97552,-3.228287 -1.84916,-7.742126 -5.80148,-12.062243 -12.54306,-13.710288 -4.73374,-1.157211 -5.02874,-5.075418 -0.46751,-6.209635 6.52054,-1.621429 10.71863,-6.123237 12.67641,-13.593497 1.58231,-6.037594 5.31161,-6.077128 6.80542,-0.07214 1.72892,6.950128 5.46441,11.323135 11.19958,13.110964 3.55363,1.107775 3.7815,1.217287 4.19441,2.015765 1.1532,2.230044 0.0448,3.954339 -2.97351,4.625855 -6.31151,1.404176 -10.56177,5.844467 -12.26418,12.812516 -1.07166,4.386327 -2.14945,5.370677 -4.65204,4.248747 z m 3.13148,-15.361614 c 1.46811,-1.977988 2.7178,-3.259675 4.27626,-4.38573 0.75964,-0.548879 0.75964,-0.548879 -0.60482,-1.550485 -1.51484,-1.111995 -3.26646,-3.14546 -4.5812,-5.318329 -1.06412,-1.758677 -0.94921,-1.767701 -2.00683,0.157602 -0.84976,1.546938 -4.03836,5.055239 -5.29948,5.830832 -0.62019,0.381414 -0.62019,0.381414 1.01395,1.692108 1.60777,1.289547 3.48624,3.536356 4.59727,5.498726 0.48571,0.857897 0.60243,0.935868 0.82979,0.554334 0.14552,-0.244192 0.9443,-1.359767 1.77506,-2.479058 z"
       id="path2" /><path
       style="display:inline;fill:#45255a"
       d="m 33.385616,240.34837 c -1.503484,-0.74921 -2.527847,-2.13768 -2.811539,-3.81088 -0.198122,-1.1685 -2.52824,-40.67285 -2.52824,-42.86325 0,-1.7778 -0.13558,-2.12819 -1.522593,-3.93499 -3.103191,-4.04239 -3.596478,-6.3801 -4.461747,-21.14439 -1.187728,-20.26646 -1.267742,-19.47937 2.548546,-25.06992 0.35849,-0.52516 0.352906,-1.20992 -0.05305,-6.50542 -0.249542,-3.25516 -0.703023,-9.31176 -1.007737,-13.4591 -0.304714,-4.14735 -0.843952,-11.1125 -1.198306,-15.47813 C 21.996596,103.71667 21.404354,96.334794 21.034857,91.678128 20.66536,87.021461 20.291,82.483988 20.202946,81.594854 c -0.482681,-4.873939 1.298737,-6.032966 10.342286,-6.728905 14.993646,-1.153824 14.082044,-1.01216 20.387059,-3.168165 5.825141,-1.991911 33.812266,-13.553286 42.597915,-17.597036 1.164166,-0.535828 3.009635,-1.311262 4.101041,-1.723186 1.091406,-0.411924 3.762733,-1.477619 5.936273,-2.368211 10.397,-4.260098 12.10755,-3.640076 13.49547,4.891695 0.93587,5.752935 2.53117,13.979428 2.75675,14.215756 0.10123,0.106062 2.91907,0.0207 6.26185,-0.189691 18.59585,-1.170405 18.74567,-1.164288 20.50297,0.837168 1.42463,1.622571 1.14288,-1.372344 3.30611,35.143011 0.36208,6.11188 0.79309,13.37469 0.9578,16.13959 0.35338,5.93176 0.0644,5.35659 2.41489,4.80587 11.54758,-2.70553 16.07311,0.59175 16.63712,12.12172 0.3108,6.35361 -0.60356,5.78967 7.43155,4.58346 28.27451,-4.2445 28.06565,-4.22809 29.66174,-2.33124 1.53049,1.81889 1.43125,2.0653 -5.31357,13.19298 -4.88185,8.05412 -5.19387,6.1907 2.48553,14.8441 6.77792,7.63758 7.1281,8.16853 6.6385,10.06539 -0.58325,2.25964 -1.74029,2.79033 -7.81608,3.58491 -15.18071,1.98532 -32.1917,4.18662 -40.63742,5.25869 -3.91319,0.49672 -7.19,1.02467 -7.28181,1.17321 -0.15344,0.24827 0.56935,11.80399 2.18533,34.93857 1.00663,14.41096 2.50582,13.27981 -18.61259,14.04332 -8.22192,0.29725 -19.83052,0.71668 -25.79687,0.93206 -16.050361,0.5794 -24.192201,0.87752 -36.115625,1.32243 -12.783933,0.47702 -40.589893,1.45306 -41.395487,1.45306 -0.313149,0 -1.189778,-0.30917 -1.948065,-0.68704 z m 25.881053,-8.04833 c 4.001823,-0.14271 10.371666,-0.37876 14.155208,-0.52455 13.187595,-0.50815 44.981433,-1.66031 58.340623,-2.11417 8.85273,-0.30076 11.64166,-0.48789 11.64166,-0.78112 0,-0.11209 -1.57757,-1.50799 -3.50572,-3.102 -1.92816,-1.594 -8.80401,-7.29732 -15.27969,-12.67404 -6.47568,-5.37672 -12.71069,-10.54669 -13.85558,-11.48883 -2.39065,-1.96727 -1.07391,-2.86376 -9.9201,6.75401 -10.35032,11.25309 -10.821632,11.2744 -21.567383,0.97501 -2.185841,-2.09504 -3.544696,-3.21211 -3.791952,-3.11722 -0.21194,0.0813 -0.677517,0.14787 -1.034615,0.14787 -0.688598,0 -0.803944,0.10521 -18.952763,17.28876 -10.568039,10.00595 -10.032182,9.24251 -6.35,9.04688 1.564349,-0.0831 6.118489,-0.26788 10.120312,-0.4106 z m -5.820833,-18.11608 c 9.079686,-8.83342 8.820877,-8.49599 6.696093,-8.73014 -6.559423,-0.72284 -15.526364,-3.3457 -21.212931,-6.20485 -2.811034,-1.41336 -2.611524,-2.83137 -1.793721,12.74881 0.391455,7.45773 0.709128,14.22427 0.70594,15.03676 -0.0032,0.8125 0.07095,1.554 0.164741,1.6478 0.197367,0.19737 4.135731,-3.50084 15.439878,-14.49838 z m 95.930754,7.07385 c -0.22136,-2.04168 -3.0511,-41.57082 -3.0589,-42.73021 -0.008,-1.21521 -4.48677,0.90587 -18.65623,8.83567 -5.09323,2.85038 -10.03433,5.58541 -10.98021,6.07784 -2.31667,1.20608 -2.67218,0.73959 5.95312,7.81153 4.22011,3.46009 11.84011,9.71437 16.93334,13.89839 10.26254,8.43056 10.04623,8.29589 9.80888,6.10678 z M 94.140132,205.38509 c 4.772635,-4.96404 4.799461,-5.14764 0.515264,-3.52656 -1.637499,0.61961 -4.519502,1.51536 -6.404452,1.99056 -4.030606,1.01612 -4.06943,1.0646 -2.076368,2.59269 3.845558,2.94841 4.154263,2.90746 7.965556,-1.05669 z M 77.65521,198.93673 c 11.900535,-1.26236 23.94132,-5.18291 37.96771,-12.36252 31.88074,-16.3186 42.81307,-20.30548 48.65807,-17.74497 1.66083,0.72756 1.66027,0.58141 -0.0923,-24.10216 -0.22214,-3.12869 -0.40563,-6.68436 -0.40777,-7.90147 -0.0153,-8.71922 -12.13862,-6.29791 -37.5747,7.50452 -22.38928,12.14914 -32.280604,16.44156 -44.714582,19.40424 -22.649025,5.39664 -43.747512,2.88801 -52.778446,-6.27541 -2.051565,-2.08166 -2.118058,-1.97094 -1.756364,2.9246 0.164775,2.23024 0.423379,5.90045 0.574676,8.15602 0.394355,5.87916 0.779614,9.44912 1.194775,11.07127 3.439118,13.43761 24.821322,21.88313 48.928901,19.32588 z m 97.63124,-19.55268 c 1.16417,-0.13329 3.1287,-0.36003 4.36563,-0.50386 1.23693,-0.14382 3.38005,-0.3856 4.7625,-0.53727 12.03587,-1.32051 17.76608,-2.06358 18.04214,-2.33964 0.14081,-0.14081 -2.19628,-2.98114 -5.72657,-6.95965 -6.19659,-6.98334 -6.65389,-7.67586 -5.94917,-9.009 0.18118,-0.34275 2.11583,-3.48067 4.29922,-6.97317 2.18339,-3.4925 4.02447,-6.55836 4.09128,-6.81302 0.16224,-0.61836 0.60095,-0.65527 -10.07591,0.84772 -5.12116,0.7209 -10.32323,1.44209 -11.56016,1.60263 -1.23692,0.16055 -2.89389,0.40415 -3.68215,0.54135 -0.78825,0.13719 -1.7646,0.24944 -2.16966,0.24944 -1.07848,0 -1.18143,0.42309 -0.97782,4.01848 0.39681,7.00701 0.7687,13.49185 0.99859,17.41277 0.28636,4.88435 0.0935,6.11291 -1.19604,7.61946 -0.50073,0.58499 -0.91042,1.1373 -0.91042,1.22736 0,0.17043 2.06769,0.031 5.68854,-0.3836 z M 69.585418,159.43948 c 5.61252,-0.81236 10.248528,-1.85425 17.166984,-3.8581 9.400938,-2.72286 13.912208,-4.67371 25.827808,-11.16895 13.34833,-7.27623 22.98098,-12.09592 29.10416,-14.56225 1.88307,-0.75847 1.92036,-1.43542 0.95124,-17.26997 -0.76179,-12.44693 -1.54565,-25.687568 -1.86208,-31.45328 -0.14279,-2.6017 -0.30987,-4.780629 -0.37131,-4.842064 -0.0614,-0.06143 -4.9773,0.19447 -10.92415,0.568678 -20.13763,1.267168 -40.405233,2.500716 -49.970777,3.041374 -9.542538,0.539357 -17.873689,1.027122 -29.50104,1.727201 -3.41974,0.205902 -8.718021,0.511747 -11.773958,0.679656 -10.196758,0.560263 -10.06153,0.542607 -10.006646,1.306561 0.02614,0.363802 0.40944,4.828646 0.851786,9.921875 0.881152,10.145699 1.387182,16.894659 2.807106,37.438539 1.201248,17.38002 1.868198,24.61336 2.306894,25.01917 1.36597,1.26358 9.397706,3.08561 17.270026,3.91777 2.426907,0.25654 15.44397,-0.0783 18.123957,-0.46621 z m 13.39024,-10.2118 c -11.791966,-1.49247 -22.114604,-8.67346 -19.24132,-13.38531 1.41571,-2.32161 4.739955,-2.19079 7.505134,0.29535 8.451818,7.59891 28.140928,6.52391 36.313648,-1.98267 4.04528,-4.21052 9.98512,-2.58692 7.97544,2.18001 -3.23514,7.67368 -20.321392,14.44072 -32.552902,12.89262 z M 69.810898,127.7032 c -6.985241,-2.5886 -7.991092,-17.62095 -1.416105,-21.16355 5.951273,-3.20654 11.584803,2.16056 11.617052,11.06764 0.02818,7.78295 -4.458884,12.22381 -10.200947,10.09591 z m 4.152172,-11.14221 c 0.754476,-0.75448 0.857608,-2.04433 0.274956,-3.43881 -1.043659,-2.49783 -4.123441,-1.51931 -4.123441,1.31011 0,2.34531 2.338429,3.63875 3.848485,2.1287 z m 31.42746,9.37456 c -8.293015,-1.68204 -9.523408,-19.51249 -1.51087,-21.89505 6.34791,-1.88758 10.93269,2.74469 10.9456,11.05898 0.0113,7.25689 -4.05508,11.92721 -9.43473,10.83607 z m 3.41937,-11.9214 c 0.62607,-0.76603 0.5951,-2.53698 -0.0632,-3.61675 -1.60562,-2.63341 -5.43253,0.37917 -3.965,3.12128 0.71284,1.33195 3.10419,1.62609 4.02825,0.49547 z M 94.853125,70.92546 c 15.545765,-0.919822 16.682335,-1.029434 16.638505,-1.604623 -0.0314,-0.411495 -1.87132,-10.768478 -2.10837,-11.867824 -0.16267,-0.754423 -32.518661,12.755895 -33.977009,14.187179 -0.475631,0.466805 -0.598247,0.471312 19.446874,-0.714732 z m 91.776905,30.68996 c -1.34543,-0.60317 -1.35051,-0.61148 -1.97552,-3.228287 -1.84916,-7.742126 -5.80148,-12.062243 -12.54306,-13.710288 -4.73374,-1.157211 -5.02874,-5.075418 -0.46751,-6.209635 6.52054,-1.621429 10.71863,-6.123237 12.67641,-13.593497 1.58231,-6.037594 5.31161,-6.077128 6.80542,-0.07214 1.72892,6.950128 5.46441,11.323135 11.19958,13.110964 3.55363,1.107775 3.7815,1.217287 4.19441,2.015765 1.1532,2.230044 0.0448,3.954339 -2.97351,4.625855 -6.31151,1.404176 -10.56177,5.844467 -12.26418,12.812516 -1.07166,4.386327 -2.14945,5.370677 -4.65204,4.248747 z m 2.24645,-13.406853 c 1.29851,-2.144919 3.17569,-4.305886 4.88594,-5.624594 1.7389,-1.340807 1.77968,-1.463294 0.67689,-2.033567 -1.28062,-0.662233 -3.96012,-3.553366 -5.1435,-5.549754 -1.38119,-2.330087 -1.43356,-2.333114 -2.72603,-0.157564 -1.28579,2.164307 -3.36118,4.508584 -4.97355,5.617926 -1.4191,0.976362 -1.42093,0.95809 0.20933,2.088989 1.56254,1.083926 3.45023,3.238854 4.8371,5.521875 1.19165,1.961681 1.13123,1.957984 2.23382,0.136689 z"
       id="path1" /></g></svg>
