<svg width="512" height="512" viewBox="0 0 512 512" fill="none" xmlns="http://www.w3.org/2000/svg">
<path d="M436.572 293.714C436.572 414.27 338.842 512 218.286 512C97.7299 512 0 414.27 0 293.714C0 173.158 97.7299 75.4283 218.286 75.4283C338.842 75.4283 436.572 173.158 436.572 293.714Z" fill="#D06294"/>
<path d="M426.572 293.715C426.572 178.682 333.319 85.4286 218.286 85.4283C103.253 85.4283 10 178.681 10 293.715C10.0002 408.747 103.253 502 218.286 502V512L216.874 511.996C97.438 511.24 0.761193 414.562 0.00488281 295.126L0 293.715C0 173.159 97.7303 75.4283 218.286 75.4283L219.697 75.4332C339.604 76.1925 436.572 173.629 436.572 293.715L436.568 295.126C435.808 415.032 338.371 512 218.286 512V502C333.319 502 426.571 408.747 426.572 293.715Z" fill="#DB8AAF"/>
<mask id="mask0_210_23822" style="mask-type:alpha" maskUnits="userSpaceOnUse" x="8" y="0" width="504" height="502">
<path d="M228.605 5C300.945 5 445.129 11.1616 499.786 18.0518C503.414 132.284 507 318.272 507 408.312C507 411.153 505.409 414.944 501.084 419.657C496.83 424.293 490.425 429.271 482.058 434.406C465.35 444.661 441.614 455.058 413.918 464.368C358.531 482.986 288.227 496.946 228.605 496.946C161.028 496.946 107.813 472.991 71.4766 434.576C35.0989 396.118 15.3204 342.829 15.3203 283.661C15.3203 202.484 14.1117 93.6079 13.3164 31.4668C55.6628 23.0884 163.317 5.00003 228.605 5Z" fill="#D06294" stroke="#DB8AAF" stroke-width="10"/>
</mask>
<g mask="url(#mask0_210_23822)">
<path d="M365.999 459.203L66.6458 484.076L39.1425 98.1044L338.496 73.2316L365.999 459.203Z" fill="#FEFCEF"/>
<path d="M68.1531 489.319C65.482 488.084 63.5627 487.223 62.487 484.648C61.5893 482.5 58.1082 464.69 56.1426 411.137C54.6012 369.142 56.8934 365.123 53.6917 360.998C47.2313 352.676 42.5567 347.91 41.6145 333.429C36.8856 260.748 38.799 266.209 47.9383 251.963C50.5568 247.882 42.2546 180.181 39.3663 97.3141C39.3663 91.614 205.904 46.6435 245.601 21.0272C256.986 14.9406 276.698 63.3953 281.552 62.8924C308.893 60.0604 351.819 58.6438 353.217 84.0853C354.617 109.544 351.677 201.576 361.87 205.552C395.155 197.929 406.863 204.204 408.048 235.275C408.305 242.035 408.512 248.69 408.697 248.69C408.883 248.69 423.904 246.954 439.828 244.595C498.469 235.907 495.826 235.594 499.971 239.233C505.83 244.377 504.831 244.418 489.62 269.842C476.989 290.954 477.128 292.212 478.828 294.013C509.406 326.431 514.019 332.524 507.85 339.352C504.351 343.225 514.013 340.902 408.917 354.372C388.643 356.97 371.896 359.041 370.67 359.774C370.459 359.9 373.26 435.668 375.182 462.119C376.05 474.057 375.869 474.182 371.52 478.001C367.321 481.687 367.11 480.437 247.102 484.499C216.232 485.544 170.117 486.978 145.642 487.867C80.5274 490.231 70.6053 490.453 68.1531 489.319ZM152.283 468.988C166.165 468.49 178.12 468.086 178.85 468.091C179.581 468.096 191.835 467.616 206.082 467.025C220.328 466.434 253.803 465.186 280.469 464.251C332.315 462.433 331.706 462.476 329.53 460.743C328.756 460.127 320.105 452.897 310.306 444.678C300.508 436.459 287.843 425.849 282.163 421.099C276.482 416.35 269.814 410.746 267.343 408.646C261.747 403.889 262.593 403.775 253.902 410.467C206.855 446.694 205.711 447.031 187.087 430.134C182.705 426.158 182.705 426.158 176.825 425.375C164.377 423.719 165.573 423.1 146.474 441.092C123.085 463.126 116.222 469.852 116.898 470.077C117.219 470.184 119.633 470.187 122.263 470.082C124.893 469.978 138.402 469.486 152.283 468.988ZM353.536 418.395C352.592 405.271 351.235 386.613 350.519 376.932C349.803 367.252 349.216 358.51 349.214 357.505C349.209 354.158 334.117 361.031 303.715 378.225C300.062 380.29 294.757 383.289 291.926 384.888C285.435 388.555 285.208 387.891 295.943 396.617C300.948 400.686 316.252 413.204 329.95 424.434C349.748 440.665 354.897 444.588 355.054 443.555C355.162 442.841 354.479 431.519 353.536 418.395ZM112.731 427.147C116.549 423.297 119.475 419.951 119.235 419.711C118.578 419.053 102.241 414.126 100.719 414.126C99.4357 414.126 99.3033 430.587 100.538 436.58C100.95 438.577 102.873 437.088 112.731 427.147ZM149.248 287.596C166.793 285.811 182.059 282.493 205.904 275.282C226.393 269.086 233.259 265.947 270.507 245.753C293.854 233.096 320.393 219.811 332.434 214.754C340.577 211.335 340.577 211.335 340.573 208.621C340.57 207.128 339.971 196.044 339.241 183.989C338.511 171.934 337.031 146.829 335.951 128.199C334.872 109.568 333.797 91.2409 333.563 87.4707C333.137 80.6159 333.137 80.6159 330.714 80.9641C329.381 81.1557 325.152 81.4852 321.316 81.6964C317.481 81.9075 295.214 83.2595 271.835 84.7007C218.158 88.0097 172.482 90.6969 102.47 94.6648C70.7097 96.4648 73.3715 95.9828 73.8548 99.8457C74.0691 101.558 74.8477 111.478 75.5852 121.889C77.3209 146.393 79.3493 173.253 80.2246 183.325C80.6056 187.709 81.5154 199.066 82.2464 208.564C82.9774 218.061 84.328 235.546 85.2478 247.418C86.1676 259.29 87.1552 272.392 87.4425 276.533C88.0582 285.408 87.3835 284.75 97.375 286.228C114.602 288.777 132.893 289.259 149.248 287.596Z" fill="#F6D0CF"/>
<path d="M65.7293 491.439C61.9552 489.558 59.3837 486.072 58.6716 481.872C58.1743 478.939 52.325 379.772 52.325 374.274C52.325 369.811 51.9847 368.931 48.5029 364.396C40.7131 354.248 39.4748 348.38 37.3027 311.318C34.3212 260.444 34.1204 262.419 43.7003 248.386C44.6002 247.067 44.5862 245.348 43.5671 232.055C42.9407 223.884 41.8023 208.68 41.0374 198.269C40.2725 187.858 38.9189 170.374 38.0293 159.415C37.1398 148.456 35.6531 129.926 34.7256 118.236C33.798 106.547 32.8583 95.1563 32.6373 92.9244C31.4256 80.6895 35.8974 77.78 58.5992 76.033C96.2373 73.1366 93.9489 73.4922 109.776 68.08C124.399 63.0798 194.654 34.0576 216.708 23.9067C219.631 22.5617 224.263 20.6151 227.003 19.5811C229.743 18.547 236.449 15.8718 241.905 13.6362C268.004 2.94223 272.298 4.49866 275.782 25.9157C278.131 40.3571 282.136 61.0078 282.702 61.6011C282.956 61.8673 290.03 61.653 298.421 61.1249C345.102 58.1869 345.478 58.2022 349.889 63.2264C353.465 67.2995 352.758 59.7815 358.188 151.445C359.097 166.787 360.179 185.019 360.593 191.96C361.48 206.85 360.754 205.406 366.655 204.024C395.642 197.232 407.003 205.509 408.418 234.452C409.199 250.402 406.903 248.986 427.074 245.958C498.05 235.303 497.526 235.344 501.533 240.106C505.375 244.672 505.125 245.29 488.194 273.224C475.939 293.442 475.156 288.764 494.434 310.487C511.448 329.659 512.327 330.992 511.098 335.754C509.634 341.426 506.729 342.758 491.477 344.753C453.37 349.736 410.668 355.262 389.467 357.953C379.643 359.2 371.418 360.526 371.187 360.898C370.802 361.522 372.616 390.53 376.673 448.604C379.2 484.779 382.963 481.94 329.95 483.856C309.311 484.602 280.17 485.655 265.193 486.196C224.903 487.65 204.464 488.399 174.533 489.516C142.442 490.713 72.6417 493.163 70.6195 493.163C69.8334 493.163 67.6328 492.387 65.7293 491.439ZM130.698 471.235C140.743 470.877 156.733 470.284 166.231 469.918C199.336 468.643 279.147 465.75 312.682 464.611C334.905 463.856 341.906 463.386 341.906 462.65C341.906 462.369 337.945 458.865 333.105 454.863C328.265 450.862 311.005 436.545 294.749 423.048C278.493 409.551 262.842 396.573 259.968 394.208C253.967 389.27 257.272 387.019 235.066 411.163C209.084 439.411 207.901 439.464 180.926 413.61C175.439 408.351 172.028 405.547 171.407 405.785C170.875 405.989 169.706 406.156 168.81 406.156C167.081 406.156 166.792 406.42 121.233 449.556C94.7046 474.673 96.0498 472.757 105.293 472.266C109.22 472.057 120.652 471.593 130.698 471.235ZM116.086 425.759C138.878 403.585 138.229 404.432 132.895 403.844C116.429 402.029 93.9195 395.445 79.6447 388.268C72.5883 384.72 73.0891 381.16 75.142 420.271C76.1246 438.992 76.9221 455.978 76.9141 458.017C76.9061 460.057 77.0922 461.918 77.3276 462.154C77.8231 462.649 87.7094 453.366 116.086 425.759ZM356.898 443.516C356.342 438.391 349.239 339.162 349.219 336.252C349.199 333.201 337.956 338.526 302.387 358.432C289.602 365.587 277.198 372.452 274.824 373.689C269.008 376.716 268.116 375.545 289.768 393.298C300.361 401.983 319.49 417.683 332.275 428.186C358.037 449.349 357.494 449.011 356.898 443.516ZM218.24 403.671C230.22 391.21 230.287 390.749 219.533 394.819C215.422 396.374 208.188 398.623 203.456 399.815C193.338 402.366 193.241 402.488 198.244 406.324C207.897 413.725 208.672 413.622 218.24 403.671ZM156.601 288.335C170.69 286.296 182.327 283.681 199.694 278.65C223.293 271.815 234.618 266.918 264.529 250.613C298.037 232.348 322.218 220.249 337.588 214.058C342.315 212.154 342.409 210.455 339.976 170.706C338.064 139.461 336.096 106.223 335.302 91.7497C334.944 85.2188 334.524 79.7491 334.37 79.5948C334.216 79.4406 321.876 80.083 306.947 81.0224C256.396 84.2033 205.519 87.2999 181.507 88.6571C157.553 90.011 136.639 91.2354 107.452 92.9928C98.8671 93.5097 85.567 94.2774 77.8958 94.6989C52.2992 96.1053 52.6386 96.061 52.7764 97.9787C52.842 98.892 53.8042 110.1 54.9146 122.885C57.1266 148.354 58.3968 165.295 61.9612 216.866C64.9767 260.495 66.6509 278.652 67.7522 279.671C71.1811 282.843 91.3429 287.417 111.105 289.506C117.197 290.15 149.873 289.309 156.601 288.335ZM190.214 262.701C160.613 258.954 134.7 240.928 141.913 229.1C145.467 223.272 153.811 223.601 160.753 229.842C181.969 248.917 231.394 246.218 251.91 224.865C262.065 214.295 276.975 218.371 271.93 230.337C263.809 249.6 220.918 266.587 190.214 262.701ZM157.167 208.669C139.632 202.171 137.107 164.435 153.612 155.543C168.551 147.493 182.693 160.966 182.774 183.325C182.844 202.863 171.581 214.01 157.167 208.669ZM167.59 180.699C169.484 178.805 169.743 175.567 168.28 172.066C165.66 165.796 157.929 168.253 157.929 175.355C157.929 181.243 163.799 184.489 167.59 180.699ZM246.481 204.231C225.663 200.009 222.575 155.25 242.688 149.269C258.623 144.531 270.132 156.159 270.165 177.03C270.193 195.247 259.985 206.971 246.481 204.231ZM255.065 174.306C256.636 172.383 256.558 167.937 254.906 165.227C250.875 158.616 241.269 166.178 244.953 173.062C246.742 176.405 252.745 177.144 255.065 174.306ZM220.029 66.1413C259.053 63.8323 261.907 63.5571 261.797 62.1133C261.718 61.0803 257.099 35.0815 256.504 32.3218C256.096 30.428 174.873 64.3426 171.212 67.9355C170.018 69.1073 169.711 69.1186 220.029 66.1413ZM450.414 143.181C447.037 141.667 447.024 141.646 445.455 135.077C440.813 115.643 430.892 104.798 413.969 100.661C402.086 97.7561 401.345 87.9203 412.795 85.0731C429.163 81.0029 439.702 69.7021 444.616 50.9498C448.588 35.7938 457.95 35.6946 461.7 50.7687C466.04 68.2154 475.417 79.1928 489.814 83.6807C498.734 86.4616 499.306 86.7365 500.343 88.7409C503.238 94.3389 500.455 98.6673 492.878 100.353C477.035 103.878 466.366 115.024 462.092 132.516C459.402 143.527 456.696 145.998 450.414 143.181Z" fill="#1971C0"/>
<path d="M65.7293 491.439C61.9552 489.558 59.3837 486.072 58.6716 481.872C58.1743 478.939 52.325 379.772 52.325 374.274C52.325 369.811 51.9847 368.931 48.5029 364.396C40.7131 354.248 39.4748 348.38 37.3027 311.318C34.3212 260.444 34.1204 262.419 43.7003 248.386C44.6002 247.067 44.5862 245.348 43.5671 232.055C42.9407 223.884 41.8023 208.68 41.0374 198.269C40.2725 187.858 38.9189 170.374 38.0293 159.415C37.1398 148.456 35.6531 129.926 34.7256 118.236C33.798 106.547 32.8583 95.1563 32.6373 92.9244C31.4256 80.6895 35.8974 77.78 58.5992 76.033C96.2373 73.1366 93.9489 73.4922 109.776 68.08C124.399 63.0798 194.654 34.0576 216.708 23.9067C219.631 22.5617 224.263 20.6151 227.003 19.5811C229.743 18.547 236.449 15.8718 241.905 13.6362C268.004 2.94223 272.298 4.49866 275.782 25.9157C278.131 40.3571 282.136 61.0078 282.702 61.6011C282.956 61.8673 290.03 61.653 298.421 61.1249C345.102 58.1869 345.478 58.2022 349.889 63.2264C353.465 67.2995 352.758 59.7815 358.188 151.445C359.097 166.787 360.179 185.019 360.593 191.96C361.48 206.85 360.754 205.406 366.655 204.024C395.642 197.232 407.003 205.509 408.418 234.452C409.199 250.402 406.903 248.986 427.074 245.958C498.05 235.303 497.526 235.344 501.533 240.106C505.375 244.672 505.125 245.29 488.194 273.224C475.939 293.442 475.156 288.764 494.434 310.487C511.448 329.659 512.327 330.992 511.098 335.754C509.634 341.426 506.729 342.758 491.477 344.753C453.37 349.736 410.668 355.262 389.467 357.953C379.643 359.2 371.418 360.526 371.187 360.898C370.802 361.522 372.616 390.53 376.673 448.604C379.2 484.779 382.963 481.94 329.95 483.856C309.311 484.602 280.17 485.655 265.193 486.196C224.903 487.65 204.464 488.399 174.533 489.516C142.442 490.713 72.6417 493.163 70.6195 493.163C69.8334 493.163 67.6328 492.387 65.7293 491.439ZM130.698 471.235C140.743 470.877 156.733 470.284 166.231 469.918C199.336 468.643 279.147 465.75 312.682 464.611C334.905 463.856 341.906 463.386 341.906 462.65C341.906 462.369 337.945 458.865 333.105 454.863C328.265 450.862 311.005 436.545 294.749 423.048C278.493 409.551 262.842 396.573 259.968 394.208C253.967 389.27 257.272 387.019 235.066 411.163C209.084 439.411 207.901 439.464 180.926 413.61C175.439 408.351 172.028 405.547 171.407 405.785C170.875 405.989 169.706 406.156 168.81 406.156C167.081 406.156 166.792 406.42 121.233 449.556C94.7046 474.673 96.0498 472.757 105.293 472.266C109.22 472.057 120.652 471.593 130.698 471.235ZM116.086 425.759C138.878 403.585 138.229 404.432 132.895 403.844C116.429 402.029 93.9195 395.445 79.6447 388.268C72.5883 384.72 73.0891 381.16 75.142 420.271C76.1246 438.992 76.9221 455.978 76.9141 458.017C76.9061 460.057 77.0922 461.918 77.3276 462.154C77.8231 462.649 87.7094 453.366 116.086 425.759ZM356.898 443.516C356.342 438.391 349.239 339.162 349.219 336.252C349.199 333.201 337.956 338.526 302.387 358.432C289.602 365.587 277.198 372.452 274.824 373.689C269.008 376.716 268.116 375.545 289.768 393.298C300.361 401.983 319.49 417.683 332.275 428.186C358.037 449.349 357.494 449.011 356.898 443.516ZM218.24 403.671C230.22 391.21 230.287 390.749 219.533 394.819C215.422 396.374 208.188 398.623 203.456 399.815C193.338 402.366 193.241 402.488 198.244 406.324C207.897 413.725 208.672 413.622 218.24 403.671ZM175.343 386.596C186.386 385.431 189.332 384.944 202.097 382.177C207.694 380.963 218.551 377.931 223.018 376.333C225.027 375.615 230.407 373.698 234.973 372.073C248.437 367.282 252.181 365.519 296.077 343.288C325.162 328.558 330.106 326.251 347.613 319.235C369.933 310.292 387.275 307.12 394.311 310.695C395.555 311.326 396.652 311.843 396.751 311.843C396.849 311.843 396.795 309.676 396.631 307.028C396.467 304.38 395.888 295.04 395.344 286.272C394.801 277.505 394.047 266.148 393.669 261.034C393.292 255.92 392.758 245.907 392.483 238.784C391.966 225.375 391.737 224.319 388.734 221.515C380.934 214.231 342.75 227.159 296.41 252.774C242.245 282.713 212.352 295.061 176.194 302.431C169.838 303.726 167.856 304.049 154.276 305.999C146.203 307.159 114.426 307.153 106.455 305.989C103.168 305.51 97.2734 304.48 93.357 303.701C89.4405 302.922 86.1058 302.417 85.9465 302.58C85.4719 303.065 88.9809 364.378 89.9041 371.733C90.3347 375.163 89.5125 374.636 102.042 379.516C109.57 382.447 124.958 385.577 139.332 387.099C145.548 387.758 167.192 387.455 175.343 386.596ZM419.01 337.739C430.777 336.323 436.191 335.694 445.185 334.698C462.612 332.768 471.034 331.802 482.047 330.469C485.152 330.093 487.916 329.784 488.19 329.781C489.537 329.768 487.651 327.39 474.662 312.73C455.484 291.084 455.928 295.428 470.515 272.189C476.127 263.249 480.718 255.718 480.718 255.453C480.718 254.994 478.621 255.237 461.789 257.649C457.771 258.225 452.242 259.016 449.502 259.406C446.762 259.797 442.727 260.383 440.536 260.709C438.344 261.035 434.01 261.634 430.905 262.041C419.729 263.504 415.259 264.104 413.056 264.438C410.816 264.778 410.816 264.778 411.258 270.544C411.502 273.715 411.973 281.69 412.305 288.265C412.637 294.84 413.252 305.6 413.671 312.175C414.71 328.497 414.457 331.632 411.793 335.411C409.313 338.93 409.256 338.912 419.01 337.739ZM156.601 288.335C170.69 286.296 182.327 283.681 199.694 278.65C223.293 271.815 234.618 266.918 264.529 250.613C298.037 232.348 322.218 220.249 337.588 214.058C342.315 212.154 342.409 210.455 339.976 170.706C338.064 139.461 336.096 106.223 335.302 91.7497C334.944 85.2188 334.524 79.7491 334.37 79.5948C334.216 79.4406 321.876 80.083 306.947 81.0224C256.396 84.2033 205.519 87.2999 181.507 88.6571C157.553 90.011 136.639 91.2354 107.452 92.9928C98.8671 93.5097 85.567 94.2774 77.8958 94.6989C52.2992 96.1053 52.6386 96.061 52.7764 97.9787C52.842 98.892 53.8042 110.1 54.9146 122.885C57.1266 148.354 58.3968 165.295 61.9612 216.866C64.9767 260.495 66.6509 278.652 67.7522 279.671C71.1811 282.843 91.3429 287.417 111.105 289.506C117.197 290.15 149.873 289.309 156.601 288.335ZM190.214 262.701C160.613 258.954 134.7 240.928 141.913 229.1C145.467 223.272 153.811 223.601 160.753 229.842C181.969 248.917 231.394 246.218 251.91 224.865C262.065 214.295 276.975 218.371 271.93 230.337C263.809 249.6 220.918 266.587 190.214 262.701ZM157.167 208.669C139.632 202.171 137.107 164.435 153.612 155.543C168.551 147.493 182.693 160.966 182.774 183.325C182.844 202.863 171.581 214.01 157.167 208.669ZM167.59 180.699C169.484 178.805 169.743 175.567 168.28 172.066C165.66 165.796 157.929 168.253 157.929 175.355C157.929 181.243 163.799 184.489 167.59 180.699ZM246.481 204.231C225.663 200.009 222.575 155.25 242.688 149.269C258.623 144.531 270.132 156.159 270.165 177.03C270.193 195.247 259.985 206.971 246.481 204.231ZM255.065 174.306C256.636 172.383 256.558 167.937 254.906 165.227C250.875 158.616 241.269 166.178 244.953 173.062C246.742 176.405 252.745 177.144 255.065 174.306ZM220.029 66.1413C259.053 63.8323 261.907 63.5571 261.797 62.1133C261.718 61.0803 257.099 35.0815 256.504 32.3218C256.096 30.428 174.873 64.3426 171.212 67.9355C170.018 69.1073 169.711 69.1186 220.029 66.1413ZM450.414 143.181C447.037 141.667 447.024 141.646 445.455 135.077C440.813 115.643 430.892 104.798 413.969 100.661C402.086 97.7561 401.345 87.9203 412.795 85.0731C429.163 81.0029 439.702 69.7021 444.616 50.9498C448.588 35.7938 457.95 35.6946 461.7 50.7687C466.04 68.2154 475.417 79.1928 489.814 83.6807C498.734 86.4616 499.306 86.7365 500.343 88.7409C503.238 94.3389 500.455 98.6673 492.878 100.353C477.035 103.878 466.366 115.024 462.092 132.516C459.402 143.527 456.696 145.998 450.414 143.181ZM458.275 104.62C461.96 99.6543 465.097 96.4369 469.01 93.6102C470.916 92.2324 470.917 92.2324 467.491 89.7181C463.689 86.9267 459.292 81.8221 455.991 76.3676C453.32 71.9529 453.609 71.9302 450.954 76.7633C448.82 80.6465 440.816 89.4533 437.65 91.4002C436.094 92.3577 436.094 92.3577 440.196 95.6479C444.232 98.885 448.947 104.525 451.736 109.451C452.955 111.605 453.248 111.8 453.819 110.843C454.184 110.23 456.19 107.429 458.275 104.62Z" fill="#1C5CA9"/>
<path d="M65.7293 491.439C61.9552 489.558 59.3837 486.072 58.6716 481.872C58.1743 478.939 52.325 379.772 52.325 374.274C52.325 369.811 51.9847 368.931 48.5029 364.396C40.7131 354.248 39.4748 348.38 37.3027 311.318C34.3212 260.444 34.1204 262.419 43.7003 248.386C44.6002 247.067 44.5862 245.348 43.5671 232.055C42.9407 223.884 41.8023 208.68 41.0374 198.269C40.2725 187.858 38.9189 170.374 38.0293 159.415C37.1398 148.456 35.6531 129.926 34.7256 118.236C33.798 106.547 32.8583 95.1563 32.6373 92.9244C31.4256 80.6895 35.8974 77.78 58.5992 76.033C96.2373 73.1366 93.9489 73.4922 109.776 68.08C124.399 63.0798 194.654 34.0576 216.708 23.9067C219.631 22.5617 224.263 20.6151 227.003 19.5811C229.743 18.547 236.449 15.8718 241.905 13.6362C268.004 2.94223 272.298 4.49866 275.782 25.9157C278.131 40.3571 282.136 61.0078 282.702 61.6011C282.956 61.8673 290.03 61.653 298.421 61.1249C345.102 58.1869 345.478 58.2022 349.889 63.2264C353.465 67.2995 352.758 59.7815 358.188 151.445C359.097 166.787 360.179 185.019 360.593 191.96C361.48 206.85 360.754 205.406 366.655 204.024C395.642 197.232 407.003 205.509 408.418 234.452C409.199 250.402 406.903 248.986 427.074 245.958C498.05 235.303 497.526 235.344 501.533 240.106C505.375 244.672 505.125 245.29 488.194 273.224C475.939 293.442 475.156 288.764 494.434 310.487C511.448 329.659 512.327 330.992 511.098 335.754C509.634 341.426 506.729 342.758 491.477 344.753C453.37 349.736 410.668 355.262 389.467 357.953C379.643 359.2 371.418 360.526 371.187 360.898C370.802 361.522 372.616 390.53 376.673 448.604C379.2 484.779 382.963 481.94 329.95 483.856C309.311 484.602 280.17 485.655 265.193 486.196C224.903 487.65 204.464 488.399 174.533 489.516C142.442 490.713 72.6417 493.163 70.6195 493.163C69.8334 493.163 67.6328 492.387 65.7293 491.439ZM130.698 471.235C140.743 470.877 156.733 470.284 166.231 469.918C199.336 468.643 279.147 465.75 312.682 464.611C334.905 463.856 341.906 463.386 341.906 462.65C341.906 462.369 337.945 458.865 333.105 454.863C328.265 450.862 311.005 436.545 294.749 423.048C278.493 409.551 262.842 396.573 259.968 394.208C253.967 389.27 257.272 387.019 235.066 411.163C209.084 439.411 207.901 439.464 180.926 413.61C175.439 408.351 172.028 405.547 171.407 405.785C170.875 405.989 169.706 406.156 168.81 406.156C167.081 406.156 166.792 406.42 121.233 449.556C94.7046 474.673 96.0498 472.757 105.293 472.266C109.22 472.057 120.652 471.593 130.698 471.235ZM116.086 425.759C138.878 403.585 138.229 404.432 132.895 403.844C116.429 402.029 93.9195 395.445 79.6447 388.268C72.5883 384.72 73.0891 381.16 75.142 420.271C76.1246 438.992 76.9221 455.978 76.9141 458.017C76.9061 460.057 77.0922 461.918 77.3276 462.154C77.8231 462.649 87.7094 453.366 116.086 425.759ZM356.898 443.516C356.342 438.391 349.239 339.162 349.219 336.252C349.199 333.201 337.956 338.526 302.387 358.432C289.602 365.587 277.198 372.452 274.824 373.689C269.008 376.716 268.116 375.545 289.768 393.298C300.361 401.983 319.49 417.683 332.275 428.186C358.037 449.349 357.494 449.011 356.898 443.516ZM218.24 403.671C230.22 391.21 230.287 390.749 219.533 394.819C215.422 396.374 208.188 398.623 203.456 399.815C193.338 402.366 193.241 402.488 198.244 406.324C207.897 413.725 208.672 413.622 218.24 403.671ZM176.858 387.484C206.732 384.315 236.957 374.474 272.167 356.451C352.196 315.487 379.64 305.479 394.312 311.906C398.481 313.733 398.48 313.366 394.08 251.403C393.523 243.549 393.062 234.624 393.057 231.568C393.018 209.681 362.586 215.759 298.734 250.407C242.531 280.904 217.701 291.68 186.488 299.117C129.633 312.664 76.6704 306.366 54.0003 283.364C48.8503 278.138 48.6834 278.416 49.5913 290.705C50.005 296.304 50.6541 305.517 51.0339 311.179C52.0239 325.937 52.991 334.899 54.0331 338.971C62.6662 372.703 116.341 393.904 176.858 387.484ZM421.939 338.402C424.861 338.067 429.793 337.498 432.898 337.137C436.003 336.776 441.382 336.169 444.853 335.788C475.066 332.473 489.45 330.608 490.143 329.915C490.497 329.561 484.63 322.431 475.768 312.444C460.213 294.914 459.065 293.176 460.834 289.829C461.289 288.969 466.145 281.092 471.626 272.325C477.107 263.558 481.729 255.862 481.897 255.222C482.304 253.67 483.405 253.577 456.603 257.35C443.748 259.16 430.689 260.97 427.584 261.373C424.479 261.776 420.32 262.388 418.341 262.732C416.362 263.077 413.911 263.358 412.895 263.358C410.187 263.358 409.929 264.42 410.44 273.446C411.436 291.035 412.37 307.314 412.947 317.157C413.666 329.418 413.181 332.502 409.944 336.284C408.687 337.752 407.659 339.138 407.659 339.365C407.659 339.792 412.849 339.442 421.939 338.402ZM156.601 288.335C170.69 286.296 182.327 283.681 199.694 278.65C223.293 271.815 234.618 266.918 264.529 250.613C298.037 232.348 322.218 220.249 337.588 214.058C342.315 212.154 342.409 210.455 339.976 170.706C338.064 139.461 336.096 106.223 335.302 91.7497C334.944 85.2188 334.524 79.7491 334.37 79.5948C334.216 79.4406 321.876 80.083 306.947 81.0224C256.396 84.2033 205.519 87.2999 181.507 88.6571C157.553 90.011 136.639 91.2354 107.452 92.9928C98.8671 93.5097 85.567 94.2774 77.8958 94.6989C52.2992 96.1053 52.6386 96.061 52.7764 97.9787C52.842 98.892 53.8042 110.1 54.9146 122.885C57.1266 148.354 58.3968 165.295 61.9612 216.866C64.9767 260.495 66.6509 278.652 67.7522 279.671C71.1811 282.843 91.3429 287.417 111.105 289.506C117.197 290.15 149.873 289.309 156.601 288.335ZM190.214 262.701C160.613 258.954 134.7 240.928 141.913 229.1C145.467 223.272 153.811 223.601 160.753 229.842C181.969 248.917 231.394 246.218 251.91 224.865C262.065 214.295 276.975 218.371 271.93 230.337C263.809 249.6 220.918 266.587 190.214 262.701ZM157.167 208.669C139.632 202.171 137.107 164.435 153.612 155.543C168.551 147.493 182.693 160.966 182.774 183.325C182.844 202.863 171.581 214.01 157.167 208.669ZM167.59 180.699C169.484 178.805 169.743 175.567 168.28 172.066C165.66 165.796 157.929 168.253 157.929 175.355C157.929 181.243 163.799 184.489 167.59 180.699ZM246.481 204.231C225.663 200.009 222.575 155.25 242.688 149.269C258.623 144.531 270.132 156.159 270.165 177.03C270.193 195.247 259.985 206.971 246.481 204.231ZM255.065 174.306C256.636 172.383 256.558 167.937 254.906 165.227C250.875 158.616 241.269 166.178 244.953 173.062C246.742 176.405 252.745 177.144 255.065 174.306ZM220.029 66.1413C259.053 63.8323 261.907 63.5571 261.797 62.1133C261.718 61.0803 257.099 35.0815 256.504 32.3218C256.096 30.428 174.873 64.3426 171.212 67.9355C170.018 69.1073 169.711 69.1186 220.029 66.1413ZM450.414 143.181C447.037 141.667 447.024 141.646 445.455 135.077C440.813 115.643 430.892 104.798 413.969 100.661C402.086 97.7561 401.345 87.9203 412.795 85.0731C429.163 81.0029 439.702 69.7021 444.616 50.9498C448.588 35.7938 457.95 35.6946 461.7 50.7687C466.04 68.2154 475.417 79.1928 489.814 83.6807C498.734 86.4616 499.306 86.7365 500.343 88.7409C503.238 94.3389 500.455 98.6673 492.878 100.353C477.035 103.878 466.366 115.024 462.092 132.516C459.402 143.527 456.696 145.998 450.414 143.181ZM456.053 109.527C459.313 104.142 464.025 98.7176 468.318 95.4073C472.684 92.0415 472.786 91.7341 470.018 90.3025C466.803 88.6401 460.077 81.3826 457.106 76.3711C453.639 70.522 453.507 70.5144 450.263 75.9756C447.035 81.4086 441.825 87.2934 437.778 90.0781C434.216 92.529 434.211 92.4832 438.303 95.322C442.226 98.043 446.964 103.452 450.446 109.183C453.437 114.108 453.286 114.098 456.053 109.527Z" fill="#45255A"/>
</g>
</svg>
